<?xml version="1.0" encoding="UTF-8" standalone="no"?>
<!-- Created with Inkscape (http://www.inkscape.org/) -->

<svg
   width="223.80975mm"
   height="49.900681mm"
   viewBox="0 0 223.80975 49.90068"
   version="1.1"
   id="svg1"
   xml:space="preserve"
   sodipodi:docname="logo.svg"
   inkscape:version="1.4 (86a8ad7, 2024-10-11)"
   inkscape:export-filename="logo.png"
   inkscape:export-xdpi="96"
   inkscape:export-ydpi="96"
   xmlns:inkscape="http://www.inkscape.org/namespaces/inkscape"
   xmlns:sodipodi="http://sodipodi.sourceforge.net/DTD/sodipodi-0.dtd"
   xmlns="http://www.w3.org/2000/svg"
   xmlns:svg="http://www.w3.org/2000/svg"><sodipodi:namedview
     id="namedview1"
     pagecolor="#ffffff"
     bordercolor="#000000"
     borderopacity="0.25"
     inkscape:showpageshadow="2"
     inkscape:pageopacity="0.0"
     inkscape:pagecheckerboard="0"
     inkscape:deskcolor="#d1d1d1"
     inkscape:document-units="mm"
     inkscape:zoom="0.85146433"
     inkscape:cx="364.66589"
     inkscape:cy="21.727275"
     inkscape:window-width="1920"
     inkscape:window-height="1094"
     inkscape:window-x="-11"
     inkscape:window-y="-11"
     inkscape:window-maximized="1"
     inkscape:current-layer="g39" /><defs
     id="defs1" /><g
     id="g39"
     transform="translate(-291.28431,-156.09564)"><g
       id="g54"
       transform="matrix(0.26458333,0,0,0.26458333,87.753775,-200.04678)"><path
         fill="#939393"
         d="m 875.45326,1393.4061 c 2.464,-0.238 4.999,-0.084 7.474,-0.047 -5.867,27.974 -21.067,22.426 -33.181,41.362 -6.289,9.831 -9.624,21.848 -13.88,32.674 -9.5,24.168 -27.187,50.597 -47.037,67.256 10.054,-11.079 17.265,-25.711 22.241,-39.697 5.199,-15.89 9.086,-33.032 2.485,-49.126 -8.511,-20.749 -24.921,-28.411 -44.306,-36.559 24.66,0.969 45.221,8.437 65.421,22.463 4.724,-8.389 9.71,-17.099 16.02,-24.395 6.724,-7.774 14.287,-13.171 24.763,-13.931 z"
         id="path48"
         style="fill:#2fa400;fill-opacity:1" /><path
         fill="#939393"
         d="m 838.57626,1346.0501 c 0.241,0.164 0.502,0.302 0.721,0.493 6.437,5.598 14.866,27.456 14.123,36.731 -0.846,10.55 -7.209,18.224 -14.839,24.947 3.965,-13.347 4.42,-26.164 0.798,-39.687 l -0.988,9.282 c -0.942,11.804 -1.49,24.646 -3.756,36.221 -6.704,-7.089 -13.78,-16.674 -15.295,-26.578 -2.308,-15.095 10.844,-30.193 19.236,-41.409 z"
         id="path51"
         style="fill:#2fa400;fill-opacity:1" /><path
         fill="#939393"
         d="m 878.31526,1425.7941 c 2.061,-0.154 4.202,-0.067 6.272,-0.096 -0.497,6.016 -1.336,11.688 -4.877,16.793 -4.645,6.696 -11.555,9.197 -19.184,10.578 -2.62,0.446 -5.159,0.588 -7.81,0.686 0.746,-5.649 2.043,-10.632 5.278,-15.383 4.945,-7.261 11.795,-10.974 20.321,-12.578 z"
         id="path52"
         style="fill:#022240;fill-opacity:1" /><g
         id="g55"
         transform="translate(0,-0.17690795)"><path
           fill="#05325c"
           d="m 1254.5037,1391.6446 c 8.2548,-0.2745 16.562,-0.1065 24.8224,-0.103 12.1762,0.01 25.7698,-0.9464 37.5728,2.122 7.8766,2.0474 15.1833,6.268 19.1507,13.0634 3.3906,5.8093 4.1297,13.479 1.8319,19.7651 -2.8505,7.7945 -9.4882,12.0471 -17.0771,15.544 8.6872,2.347 17.0704,5.3651 21.672,13.1846 3.5744,6.0758 3.1983,13.5291 1.1114,19.9765 q -0.4943,1.2709 -1.1433,2.4812 -0.6481,1.2112 -1.4406,2.3453 -0.7935,1.135 -1.7213,2.1791 -0.9285,1.0441 -1.979,1.9834 c -4.7497,4.2596 -11.0835,6.7365 -17.4784,8.029 -10.3463,2.0909 -21.5022,1.2857 -32.0446,1.226 l -33.3408,-0.021 z"
           id="path39"
           style="fill:#022240;fill-opacity:1;stroke-width:0.900727;stroke-dasharray:none" /><path
           fill="#efefef"
           d="m 1269.1101,1448.4028 c 14.1628,-0.251 46.3171,-2.4155 56.8548,6.8239 3.3934,2.9764 4.5959,6.734 4.5424,10.9666 -0.059,4.649 -2.0897,7.8126 -5.606,10.9639 -3.1139,1.9185 -6.12,3.1487 -9.7864,3.8855 -10.3051,2.07 -34.5263,0.8874 -46.0282,0.8588 z"
           id="path40"
           style="stroke-width:0.900727;stroke-dasharray:none" /><path
           fill="#efefef"
           d="m 1269.5388,1403.1211 c 9.7488,-0.035 19.5305,-0.3212 29.2766,-0.08 7.3103,0.1818 16.4281,0.8753 21.6476,6.2196 3.4479,3.5297 4.2836,8.2888 3.9263,12.886 -0.38,4.9001 -2.5512,8.1207 -6.4671,11.3171 -2.9189,1.8414 -5.9972,3.0111 -9.4526,3.67 -9.4928,1.8085 -28.9981,0.787 -39.5874,0.7636 -0.1248,-4.3255 -0.7597,-32.6988 0.6566,-34.7766 z"
           id="path41"
           style="stroke-width:0.900727;stroke-dasharray:none" /><path
           fill="#05325c"
           d="m 1006.6805,1413.9275 c 9.4994,-0.053 18.3825,1.9895 25.2717,8.3243 12.2842,11.2937 10.1429,28.1838 10.0912,42.764 l 0.01,27.9198 -21.5837,-0.033 0.1012,-27.8504 c 0.023,-5.4067 0.4127,-11.1104 -0.2504,-16.471 -0.3817,-3.0874 -1.0908,-6.4007 -2.9085,-9.0577 -2.5278,-3.6967 -6.9211,-5.8256 -11.4485,-6.7373 -6.16685,-1.2414 -11.43523,0.7004 -16.51792,3.7557 -0.47738,0.3896 -0.93988,0.7758 -1.38625,1.1956 -2.98919,2.812 -4.86418,6.2274 -5.87714,10.0359 -2.36266,8.8792 -0.93607,34.5844 -0.84039,45.1813 l -21.36242,-0.024 -0.0515,-77.842 18.63677,-0.01 c 0.20729,3.7868 0.82257,7.5285 1.38439,11.2818 l 0.68001,-0.7238 c 7.64232,-8.0888 14.4958,-10.984 26.05395,-11.7077 z"
           id="path42"
           style="fill:#022240;fill-opacity:1;stroke-width:0.900727;stroke-dasharray:none" /><path
           fill="#05325c"
           d="m 1387.0592,1416.0772 c 0.2955,-0.037 0.5891,-0.086 0.8864,-0.1127 9.0069,-0.8302 19.6412,0.5005 26.8709,5.8795 4.3623,3.2457 7.2145,7.803 8.6768,12.7474 2.0297,6.8629 1.5524,14.2148 1.5785,21.2629 0.045,12.3726 -0.5758,25.1321 0.7411,37.4484 l -11.8846,-0.01 c -0.017,-3.7945 -0.1276,-7.5571 -0.3846,-11.3449 -3.6786,4.6872 -7.2212,8.0274 -13.1076,10.3164 -9.1749,3.5677 -21.8708,4.3712 -31.1245,0.6345 -6.5664,-2.6508 -10.1963,-6.8896 -12.7484,-12.885 -0.5683,-2.6067 -0.9097,-5.1556 -0.9051,-7.8203 0.01,-5.9478 2.0803,-11.6574 6.8093,-15.8296 12.3255,-10.8712 34.8116,-7.7451 50.3269,-7.6593 0.12,-5.8187 -0.4699,-11.441 -4.822,-16.0486 -3.9177,-4.1496 -9.6034,-5.9184 -15.413,-6.2524 -10.985,-0.6339 -19.1977,2.8284 -27.2733,9.4098 l -8.8879,-8.4169 c 9.068,-7.3372 18.8488,-10.1899 30.6611,-11.3224 z"
           id="path43"
           style="fill:#022240;fill-opacity:1;stroke-width:0.900727;stroke-dasharray:none" /><path
           fill="#efefef"
           d="m 1391.6439,1456.7842 c 6.9406,-0.1403 13.9424,0.1213 20.8878,0.1991 0.08,6.9581 0.8245,15.3621 -4.08,21.2015 -4.5706,5.4422 -12.0713,6.9711 -19.057,7.759 -5.8331,0.1515 -11.4953,-0.7697 -16.1006,-4.3348 q -0.5319,-0.4052 -1.0168,-0.8581 -0.4858,-0.4527 -0.9191,-0.9479 -0.4333,-0.4961 -0.8104,-1.0286 -0.3771,-0.5334 -0.6931,-1.0995 -0.3171,-0.5653 -0.5713,-1.1575 -0.2531,-0.5922 -0.4417,-1.2043 -0.1876,-0.613 -0.3076,-1.2398 -0.12,-0.6277 -0.1707,-1.2622 c -0.3115,-3.7115 0.9998,-7.4066 3.7855,-10.1199 5.1483,-5.0153 12.4839,-5.6006 19.495,-5.907 z"
           id="path44"
           style="stroke-width:0.900727;stroke-dasharray:none" /><path
           fill="#05325c"
           d="m 1174.7642,1415.0643 22.0292,0.021 -0.227,17.6103 -0.019,17.9626 c -0.032,12.0774 -0.076,24.9876 -9.9121,34.188 -7.5166,7.0308 -18.0749,9.4402 -28.488,9.5311 -11.0769,0.097 -22.9155,-2.1029 -30.993,-9.6255 -11.7552,-10.9475 -9.9731,-30.2452 -9.9581,-44.4454 l 0.052,-25.1269 21.4966,-0.024 c -0.1369,8.5147 -0.022,17.0431 -0.024,25.5597 0,7.2551 -0.5759,15.0608 0.8602,22.1962 0.618,3.0692 1.8524,6.108 4.0461,8.5201 3.311,3.6405 8.0823,5.1693 13.1181,5.3902 4.533,0.1991 9.1645,-0.7507 12.4661,-3.7903 2.6646,-2.4528 4.0527,-5.779 4.7637,-9.133 1.36,-6.4135 0.803,-13.3664 0.8009,-19.8847 z"
           id="path45"
           style="fill:#022240;fill-opacity:1;stroke-width:0.900727;stroke-dasharray:none" /><path
           fill="#05325c"
           d="m 1060.4345,1395.7596 c 7.3346,-0.1481 14.6947,-0.045 22.0321,-0.057 l 0.017,19.7878 24.1856,-0.022 c 0.064,5.9711 -0.1266,11.9622 -0.2055,17.9343 q -12.0205,0.289 -24.0458,0.2302 c -0.011,8.2134 -1.1836,28.66 0.9089,35.5567 0.7935,2.6172 2.3608,4.9572 5.0048,6.2759 5.5826,2.7825 13.2295,0.7782 18.8956,-0.8112 l 0.5506,7.9952 c 0.3714,2.7392 0.3978,5.5521 0.5272,8.3104 -5.5752,2.0701 -11.0818,3.0682 -17.0939,3.2414 -8.0476,0.2319 -16.6718,-0.9281 -22.684,-6.3487 -9.4966,-8.5631 -8.1066,-22.7754 -8.1459,-33.9714 l -0.049,-20.4838 -12.3348,0.2303 0.037,-17.9888 12.3311,0.056 q -0.1192,-9.9683 0.068,-19.935 z"
           id="path46"
           style="fill:#022240;fill-opacity:1;stroke-width:0.900727;stroke-dasharray:none" /><path
           fill="#05325c"
           d="m 1540.1913,1389.9391 12.6499,0.013 q -0.034,35.7403 0.3658,71.4769 c 5.5816,-6.9173 12.4811,-13.1205 18.9059,-19.367 8.1666,-7.9398 16.2347,-16.0242 24.9134,-23.4923 3.2153,0.019 6.8395,-0.1991 9.9966,0.3369 0.9876,0.1671 1.2577,0.1124 1.8233,0.9159 -2.2013,3.5063 -6.3432,6.6958 -9.383,9.6826 q -10.3192,10.1901 -20.7847,20.2527 c 6.2813,8.0203 13.436,15.6148 19.9976,23.4733 5.6418,6.4543 11.0124,13.1379 16.4683,19.7281 -5.0873,0.035 -10.1672,0.048 -15.2479,0.3238 -10.1064,-11.2549 -19.6264,-23.1054 -29.5029,-34.5525 -6.0553,5.3635 -11.8152,11.0237 -17.5759,16.6546 l -0.032,18.1697 -12.8816,0.036 c 0.6687,-34.5213 0.2016,-69.1204 0.288,-103.652 z"
           id="path47"
           style="fill:#022240;fill-opacity:1;stroke-width:0.900727;stroke-dasharray:none" /><path
           fill="#05325c"
           d="m 1485.6221,1416.0858 q 0.5938,-0.01 1.1885,-0.01 c 9.1655,-0.013 17.5936,1.9981 24.1761,8.1771 4.3933,4.1236 7.2587,9.7337 8.6656,15.3221 1.9941,7.9192 1.2907,16.5758 1.2822,24.6707 l -0.044,29.1543 -12.7326,-0.098 c 0.051,-12.7854 1.8093,-43.6793 -2.796,-54.0519 -2.2511,-5.0689 -6.1884,-9.1269 -11.7551,-11.1933 -6.9407,-2.5765 -13.3065,-1.5782 -19.9462,1.0752 -1.887,1.0243 -3.8155,2.186 -5.3846,3.5998 -3.4497,3.1081 -5.8002,7.1088 -7.0758,11.3761 -3.083,10.3138 -1.6508,37.5038 -1.6076,49.2798 h -12.3376 q 0.1792,-37.6665 -0.1051,-75.3321 l 11.8134,-0.041 v 11.3795 q 1.2727,-1.6449 2.7133,-3.167 c 6.5159,-7.0196 14.1807,-9.4868 23.9483,-10.1431 z"
           id="path49"
           style="fill:#022240;fill-opacity:1;stroke-width:0.900727;stroke-dasharray:none" /><path
           fill="#05325c"
           d="m 1214.2231,1415.4901 q 10.7431,0.055 21.4861,-0.021 l 0.024,77.7936 q -10.8379,-0.067 -21.6767,-0.03 z"
           id="path50"
           style="fill:#022240;fill-opacity:1;stroke-width:0.900727;stroke-dasharray:none" /><path
           fill="#05325c"
           d="m 919.93757,1394.8904 q 10.74315,0.059 21.48619,-0.023 l 0.0239,98.0617 q -10.8379,-0.072 -21.67665,-0.032 z"
           id="path50-8"
           style="fill:#022240;fill-opacity:1;stroke-width:1.01129;stroke-dasharray:none" /><path
           fill="#05325c"
           d="m 1222.2124,1385.9903 q 0.3855,-0.083 0.7757,-0.1402 0.3901,-0.058 0.7832,-0.093 0.3939,-0.033 0.7887,-0.044 0.3949,-0.01 0.7898,0 0.3959,0.015 0.7888,0.053 0.3929,0.038 0.7823,0.1 0.3892,0.061 0.7737,0.1481 0.3846,0.087 0.7616,0.1948 0.377,0.109 0.7456,0.2406 0.3687,0.1317 0.727,0.2858 0.3583,0.154 0.7044,0.3298 0.3471,0.1758 0.68,0.3722 0.3329,0.1966 0.6509,0.413 0.3188,0.2156 0.6209,0.4511 0.302,0.2356 0.5862,0.4892 0.2852,0.2528 0.5506,0.5229 0.2655,0.2701 0.5112,0.5558 0.2467,0.2856 0.4708,0.5852 0.2251,0.3004 0.4277,0.6139 0.2027,0.3133 0.3827,0.638 0.1801,0.3246 0.3358,0.6597 0.1566,0.3351 0.288,0.6796 0.1322,0.3438 0.2391,0.6953 0.1069,0.3505 0.1876,0.7081 0.082,0.3567 0.1379,0.7177 0.055,0.361 0.086,0.7256 0.029,0.3636 0.033,0.7281 0,0.3653 -0.02,0.7289 -0.023,0.3645 -0.071,0.7264 -0.049,0.3618 -0.1228,0.7203 -0.074,0.3585 -0.1755,0.7116 -0.099,0.3523 -0.225,0.6988 -0.1248,0.3462 -0.2749,0.6838 -0.15,0.3378 -0.3235,0.665 -0.1736,0.3282 -0.3705,0.6442 -0.197,0.3168 -0.4156,0.6207 -0.2194,0.3039 -0.4595,0.593 -0.2401,0.2901 -0.5009,0.5645 -0.2608,0.2735 -0.5402,0.5316 -0.2795,0.258 -0.5778,0.4978 -0.2973,0.2406 -0.6115,0.4623 -0.3143,0.2207 -0.6435,0.4233 -0.3291,0.2018 -0.6725,0.3827 -0.3422,0.181 -0.6978,0.341 -0.3554,0.1594 -0.7212,0.2979 -0.3667,0.1378 -0.7411,0.2527 -0.3752,0.1153 -0.7577,0.207 -0.3827,0.092 -0.7711,0.1603 -0.2842,0.05 -0.5702,0.087 -0.287,0.037 -0.575,0.06 -0.288,0.024 -0.5768,0.036 -0.2888,0.011 -0.5787,0.01 -0.2889,0 -0.5778,-0.016 -0.2889,-0.015 -0.5768,-0.041 -0.288,-0.027 -0.574,-0.067 -0.2861,-0.041 -0.5693,-0.094 -0.2843,-0.053 -0.5647,-0.1186 -0.2804,-0.064 -0.557,-0.1437 -0.2768,-0.077 -0.5488,-0.168 -0.272,-0.09 -0.5394,-0.1922 -0.2673,-0.103 -0.5289,-0.2173 -0.2607,-0.1144 -0.5168,-0.2399 -0.2552,-0.1255 -0.5028,-0.2623 -0.2485,-0.1376 -0.4896,-0.2857 -0.241,-0.148 -0.4736,-0.3065 -0.2327,-0.1584 -0.4568,-0.3272 -0.2242,-0.1687 -0.4389,-0.3471 -0.2148,-0.1792 -0.4202,-0.3672 -0.2055,-0.1877 -0.4015,-0.3852 -0.1951,-0.1965 -0.3798,-0.4026 -0.1849,-0.2051 -0.3583,-0.419 -0.1735,-0.213 -0.3358,-0.4347 -0.1622,-0.2206 -0.3123,-0.4492 -0.1511,-0.2277 -0.289,-0.4623 -0.1388,-0.2346 -0.2645,-0.4753 -0.1256,-0.24 -0.2381,-0.4858 -0.1136,-0.2457 -0.2139,-0.496 -0.1,-0.2511 -0.1867,-0.5057 -0.086,-0.2544 -0.1594,-0.5132 -0.073,-0.2581 -0.1331,-0.5196 -0.06,-0.2614 -0.1052,-0.5246 -0.046,-0.2641 -0.077,-0.5299 -0.031,-0.2649 -0.05,-0.5315 -0.019,-0.2666 -0.023,-0.5333 0,-0.2676 0.01,-0.5342 0.01,-0.2667 0.033,-0.5333 0.024,-0.2658 0.061,-0.5307 0.038,-0.265 0.09,-0.5273 0.053,-0.2632 0.1182,-0.523 0.065,-0.2597 0.1444,-0.5168 0.08,-0.2571 0.1717,-0.5099 0.094,-0.2529 0.1988,-0.5012 0.106,-0.2485 0.2242,-0.4927 0.1192,-0.2433 0.2505,-0.4813 0.1313,-0.2372 0.2748,-0.4693 0.1434,-0.2321 0.2992,-0.4571 0.1557,-0.2252 0.3235,-0.4424 0.167,-0.2182 0.3461,-0.4285 0.1782,-0.2095 0.3677,-0.4121 0.1895,-0.2018 0.3893,-0.3949 0.1998,-0.193 0.4099,-0.3766 0.209,-0.1843 0.4286,-0.3584 0.2195,-0.1749 0.4474,-0.3394 0.2279,-0.1636 0.4642,-0.3176 0.2364,-0.1541 0.4803,-0.2971 0.2447,-0.1436 0.4962,-0.2752 0.2513,-0.1325 0.5092,-0.2537 0.2579,-0.1204 0.5224,-0.2295 0.2637,-0.109 0.5328,-0.2059 0.2701,-0.097 0.544,-0.182 0.2749,-0.085 0.5534,-0.1574 0.2776,-0.072 0.56,-0.1325 z"
           id="path53"
           style="fill:#022240;fill-opacity:1;stroke-width:0.900727;stroke-dasharray:none" /></g><path
         fill="#939393"
         d="m 788.06026,1390.8191 c 7.387,-0.331 13.728,-0.087 20.364,3.67 8.452,4.786 15.297,14.654 17.881,23.944 l -0.67,-0.227 c -11.41,-8.751 -26.57,-10.438 -36.457,-21.863 -1.229,-1.42 -2.837,-2.874 -2.688,-4.816 z"
         id="path54"
         style="fill:#022240;fill-opacity:1" /></g></g></svg>
