<?xml version="1.0" encoding="UTF-8" standalone="no"?>
<!-- Created with Inkscape (http://www.inkscape.org/) -->

<svg
   width="63.404221mm"
   height="55.984577mm"
   viewBox="0 0 63.40422 55.984577"
   version="1.1"
   id="svg1"
   xml:space="preserve"
   sodipodi:docname="rect1.svg"
   inkscape:version="1.4 (86a8ad7, 2024-10-11)"
   inkscape:export-filename="logo-short.png"
   inkscape:export-xdpi="200"
   inkscape:export-ydpi="200"
   xmlns:inkscape="http://www.inkscape.org/namespaces/inkscape"
   xmlns:sodipodi="http://sodipodi.sourceforge.net/DTD/sodipodi-0.dtd"
   xmlns="http://www.w3.org/2000/svg"
   xmlns:svg="http://www.w3.org/2000/svg"><sodipodi:namedview
     id="namedview1"
     pagecolor="#ffffff"
     bordercolor="#000000"
     borderopacity="0.25"
     inkscape:showpageshadow="2"
     inkscape:pageopacity="0.0"
     inkscape:pagecheckerboard="0"
     inkscape:deskcolor="#d1d1d1"
     inkscape:document-units="mm"
     inkscape:zoom="0.85146433"
     inkscape:cx="-55.199024"
     inkscape:cy="52.262906"
     inkscape:window-width="1920"
     inkscape:window-height="1094"
     inkscape:window-x="-11"
     inkscape:window-y="-11"
     inkscape:window-maximized="1"
     inkscape:current-layer="g39"><inkscape:page
       x="6.5305727e-08"
       y="5.7724623e-07"
       width="63.404221"
       height="55.984573"
       id="page2"
       margin="0"
       bleed="0" /></sodipodi:namedview><defs
     id="defs1" /><g
     id="g39"
     transform="translate(-381.61903,-215.63634)"><g
       id="g54"
       transform="matrix(0.26458333,0,0,0.26458333,198.9984,-208.126)"><rect
         style="fill:#ffffff;fill-opacity:0;stroke:none;stroke-width:1.00535;stroke-linecap:round;stroke-linejoin:round;stroke-dasharray:none;paint-order:fill markers stroke"
         id="rect1"
         width="239.638"
         height="211.59525"
         x="690.21973"
         y="1601.6215"
         rx="26"
         ry="26" /><g
         id="g1"
         transform="translate(6.0645326,-1.886917)"><path
           fill="#939393"
           d="m 852.5092,1662.3615 c 2.464,-0.238 4.999,-0.084 7.474,-0.047 -5.867,27.974 -21.067,22.426 -33.181,41.362 -6.289,9.831 -9.624,21.848 -13.88,32.674 -9.5,24.168 -27.187,50.597 -47.037,67.256 10.054,-11.079 17.265,-25.711 22.241,-39.697 5.199,-15.89 9.086,-33.032 2.485,-49.126 -8.511,-20.749 -24.921,-28.411 -44.306,-36.559 24.66,0.969 45.221,8.437 65.421,22.463 4.724,-8.389 9.71,-17.099 16.02,-24.395 6.724,-7.774 14.287,-13.171 24.763,-13.931 z"
           id="path48"
           style="fill:#2fa400;fill-opacity:1" /><path
           fill="#939393"
           d="m 815.6322,1615.0055 c 0.241,0.164 0.502,0.302 0.721,0.493 6.437,5.598 14.866,27.456 14.123,36.731 -0.846,10.55 -7.209,18.224 -14.839,24.947 3.965,-13.347 4.42,-26.164 0.798,-39.687 l -0.988,9.282 c -0.942,11.804 -1.49,24.646 -3.756,36.221 -6.704,-7.089 -13.78,-16.674 -15.295,-26.578 -2.308,-15.095 10.844,-30.193 19.236,-41.409 z"
           id="path51"
           style="fill:#2fa400;fill-opacity:1" /><path
           fill="#939393"
           d="m 855.3712,1694.7495 c 2.061,-0.154 4.202,-0.067 6.272,-0.096 -0.497,6.016 -1.336,11.688 -4.877,16.793 -4.645,6.696 -11.555,9.197 -19.184,10.578 -2.62,0.446 -5.159,0.588 -7.81,0.686 0.746,-5.649 2.043,-10.632 5.278,-15.383 4.945,-7.261 11.795,-10.974 20.321,-12.578 z"
           id="path52"
           style="fill:#022240;fill-opacity:1" /><path
           fill="#939393"
           d="m 765.1162,1659.7745 c 7.387,-0.331 13.728,-0.087 20.364,3.67 8.452,4.786 15.297,14.654 17.881,23.944 l -0.67,-0.227 c -11.41,-8.751 -26.57,-10.438 -36.457,-21.863 -1.229,-1.42 -2.837,-2.874 -2.688,-4.816 z"
           id="path54"
           style="fill:#022240;fill-opacity:1" /></g></g></g></svg>
